<?xml version="1.0" standalone="no"?>
<!DOCTYPE svg PUBLIC "-//W3C//DTD SVG 20010904//EN"
 "http://www.w3.org/TR/2001/REC-SVG-20010904/DTD/svg10.dtd">
<svg version="1.0" xmlns="http://www.w3.org/2000/svg"
 width="700.000000pt" height="700.000000pt" viewBox="0 0 700.000000 700.000000"
 preserveAspectRatio="xMidYMid meet">
<metadata>
Created by potrace 1.14, written by Peter Selinger 2001-2017
</metadata>
<g transform="translate(0.000000,700.000000) scale(0.100000,-0.100000)"
fill="#000000" stroke="none">
<path d="M3275 6954 c-212 -21 -278 -29 -395 -50 -575 -105 -1092 -341 -1555
-710 -141 -113 -406 -378 -519 -519 -419 -526 -665 -1120 -747 -1800 -18 -142
-18 -596 -1 -735 98 -810 416 -1483 967 -2049 520 -535 1198 -886 1930 -1000
539 -84 1092 -41 1606 125 930 299 1707 1001 2098 1894 209 480 301 953 288
1485 -9 354 -51 613 -154 945 -243 791 -801 1499 -1521 1929 -407 243 -853
398 -1332 462 -138 19 -561 33 -665 23z m378 -1285 c129 -77 449 -235 587
-289 409 -163 760 -251 1188 -298 89 -10 168 -24 174 -30 15 -15 -31 -230
-108 -512 -286 -1046 -797 -1979 -1509 -2754 -182 -198 -430 -436 -453 -436
-26 0 -352 322 -522 515 -737 840 -1216 1768 -1494 2893 -53 215 -63 276 -47
296 7 8 44 16 99 20 607 47 1299 271 1852 599 52 31 103 57 113 57 10 0 64
-27 120 -61z"/>
</g>
</svg>
